<?xml version="1.0" standalone="no"?>
<!DOCTYPE svg PUBLIC "-//W3C//DTD SVG 20010904//EN"
 "http://www.w3.org/TR/2001/REC-SVG-20010904/DTD/svg10.dtd">
<svg version="1.0" xmlns="http://www.w3.org/2000/svg"
 width="2880.000000pt" height="2880.000000pt" viewBox="0 0 2880.000000 2880.000000"
 preserveAspectRatio="xMidYMid meet">
<metadata>
Created by potrace 1.14, written by Peter Selinger 2001-2017
</metadata>
<g transform="translate(0.000000,2880.000000) scale(0.100000,-0.100000)"
fill="#000000" stroke="none">
<path d="M27470 15923 c0 -4 -44 -8 -98 -8 -169 -1 -328 -20 -487 -58 -49 -11
-92 -21 -95 -22 -3 0 -11 -4 -17 -8 -7 -5 -13 -6 -13 -3 0 3 -25 -4 -55 -14
-30 -10 -55 -16 -55 -13 0 3 -6 1 -12 -4 -7 -6 -31 -16 -53 -23 -22 -7 -46
-18 -54 -24 -8 -6 -16 -10 -17 -9 -16 10 -406 -194 -434 -228 -3 -3 -20 -14
-37 -24 -18 -11 -33 -23 -33 -27 0 -4 -6 -8 -13 -8 -7 0 -23 -10 -37 -22 -14
-13 -52 -43 -85 -67 -33 -25 -62 -47 -65 -51 -3 -3 -15 -13 -28 -22 -12 -8
-39 -30 -60 -49 -20 -19 -53 -47 -72 -63 -35 -28 -153 -133 -216 -191 -17 -16
-68 -63 -112 -102 -43 -40 -95 -88 -114 -105 -67 -63 -166 -154 -248 -228 -45
-41 -95 -87 -111 -102 -17 -16 -32 -28 -34 -28 -3 0 -20 -15 -39 -32 -19 -18
-51 -46 -71 -63 -21 -16 -43 -35 -49 -41 -6 -6 -56 -45 -111 -86 -55 -42 -108
-84 -117 -92 -10 -9 -22 -16 -28 -16 -5 0 -10 -4 -10 -10 0 -5 -5 -10 -10 -10
-6 0 -33 -16 -60 -35 -27 -19 -54 -35 -60 -35 -5 0 -10 -3 -10 -7 0 -5 -26
-21 -58 -38 -31 -16 -73 -39 -92 -51 -19 -11 -38 -22 -43 -22 -4 -1 -24 -9
-45 -18 -86 -37 -191 -71 -242 -79 -14 -3 -47 -9 -74 -14 -26 -5 -63 -8 -82
-7 -19 1 -34 -2 -34 -7 0 -4 -4 -5 -10 -2 -5 3 -40 8 -78 10 -38 2 -91 9 -118
15 -27 7 -60 14 -73 16 -13 3 -32 9 -43 15 -10 5 -18 7 -18 5 0 -6 -121 44
-185 75 -120 60 -275 153 -283 172 -2 4 -10 7 -18 7 -8 0 -14 5 -14 10 0 6 -5
10 -10 10 -11 0 -24 9 -59 40 -9 9 -33 26 -54 39 -20 12 -37 27 -37 32 0 5 -5
9 -10 9 -11 0 -23 8 -63 45 -12 11 -38 32 -57 47 -19 15 -48 38 -65 53 -16 15
-52 45 -79 68 -26 23 -61 53 -76 67 -52 49 -203 185 -220 200 -27 23 -217 199
-268 248 -25 23 -47 42 -49 42 -2 0 -18 15 -36 33 -17 18 -59 55 -92 82 -32
28 -66 57 -75 65 -9 8 -38 33 -65 55 -26 22 -56 48 -66 58 -11 9 -22 17 -25
17 -4 0 -14 8 -23 18 -18 20 -79 66 -246 185 -229 164 -578 316 -809 353 -21
3 -48 8 -60 11 -11 3 -34 6 -51 8 -123 11 -207 17 -245 17 -72 -1 -253 -11
-275 -16 -20 -4 -66 -11 -139 -22 -22 -3 -50 -10 -63 -15 -13 -5 -23 -7 -23
-5 0 2 -20 -2 -45 -10 -25 -7 -45 -11 -45 -9 0 2 -17 -3 -37 -12 -21 -8 -39
-15 -41 -14 -5 4 -165 -50 -257 -86 -147 -58 -323 -142 -477 -229 -87 -49
-339 -204 -348 -213 -11 -12 -129 -91 -137 -91 -5 0 -16 -8 -25 -17 -22 -24
-46 -43 -53 -43 -3 0 -11 -4 -18 -10 -7 -5 -61 -46 -122 -89 -60 -44 -115 -85
-121 -90 -7 -5 -45 -34 -85 -63 -41 -29 -76 -55 -79 -59 -3 -3 -45 -36 -95
-73 -49 -37 -99 -75 -110 -84 -11 -10 -121 -94 -245 -187 -124 -93 -226 -172
-228 -177 -2 -4 -8 -8 -14 -8 -6 0 -31 -17 -57 -38 -25 -21 -65 -51 -89 -67
-24 -17 -73 -51 -110 -78 -215 -153 -561 -377 -581 -377 -5 0 -11 -3 -13 -7
-3 -9 -21 -18 -198 -110 -68 -35 -172 -85 -230 -109 -58 -25 -114 -50 -125
-55 -12 -6 -27 -11 -35 -13 -8 -2 -26 -8 -40 -13 -14 -6 -72 -25 -130 -43 -58
-18 -112 -35 -120 -38 -8 -3 -26 -7 -40 -9 -14 -2 -39 -8 -57 -14 -17 -5 -44
-12 -60 -15 -15 -3 -38 -7 -50 -9 -13 -2 -26 -6 -31 -9 -5 -3 -35 -8 -68 -11
-32 -4 -61 -8 -64 -10 -8 -5 -149 -22 -265 -31 -89 -8 -505 -11 -505 -4 0 3
-19 5 -43 6 -56 1 -196 13 -227 19 -14 3 -40 6 -58 7 -18 1 -35 5 -38 10 -3 4
-9 6 -13 4 -8 -6 -189 25 -306 51 -16 4 -32 7 -35 8 -14 3 -86 19 -90 20 -3 1
-32 7 -65 15 -98 22 -190 47 -350 95 -66 20 -124 38 -130 39 -5 2 -17 5 -25 9
-8 3 -80 26 -160 52 -80 26 -152 49 -160 52 -8 3 -19 7 -25 9 -13 3 -305 103
-325 111 -8 3 -19 7 -25 9 -18 5 -349 116 -365 122 -21 8 -22 8 -55 16 -16 4
-41 12 -55 18 -14 6 -34 13 -45 15 -11 2 -47 12 -80 22 -85 27 -377 102 -450
115 -11 2 -47 8 -80 14 -33 6 -76 14 -95 17 -19 3 -46 7 -60 10 -201 35 -636
50 -905 31 -170 -12 -200 -14 -200 -16 0 -1 -18 -3 -40 -4 -22 -2 -58 -6 -80
-9 -22 -3 -65 -9 -95 -13 -86 -11 -148 -20 -200 -29 -14 -3 -41 -7 -60 -10
-19 -3 -42 -8 -50 -10 -13 -4 -53 -10 -135 -21 -11 -1 -21 -3 -22 -4 -3 -3 -6
-4 -53 -13 -19 -4 -44 -9 -55 -11 -72 -16 -224 -48 -245 -53 -14 -3 -29 -6
-35 -7 -5 -2 -23 -6 -40 -10 -16 -4 -48 -12 -70 -17 -22 -5 -51 -12 -65 -15
-14 -3 -36 -7 -49 -10 -14 -3 -28 -7 -33 -10 -5 -3 -20 -7 -34 -10 -14 -3 -62
-14 -107 -25 -45 -11 -89 -21 -97 -23 -8 -2 -35 -9 -60 -16 -25 -7 -52 -13
-60 -15 -8 -2 -80 -20 -160 -40 -80 -19 -156 -38 -168 -41 -21 -4 -157 -36
-377 -89 -33 -8 -71 -17 -85 -19 -14 -2 -25 -5 -25 -6 0 -2 -16 -5 -65 -15
-49 -10 -65 -13 -67 -15 -4 -3 -22 -7 -123 -27 -27 -5 -31 -6 -70 -16 -14 -4
-37 -9 -53 -11 -15 -3 -35 -7 -45 -10 -9 -3 -33 -8 -52 -11 -19 -2 -78 -14
-130 -25 -52 -12 -106 -23 -120 -25 -23 -3 -98 -18 -160 -30 -40 -8 -83 -16
-110 -20 -14 -2 -36 -6 -50 -9 -14 -3 -38 -8 -55 -11 -16 -3 -43 -7 -60 -10
-16 -3 -43 -8 -60 -10 -41 -6 -106 -17 -130 -21 -11 -3 -36 -6 -55 -9 -19 -3
-44 -7 -56 -9 -12 -2 -45 -7 -74 -11 -29 -4 -60 -8 -69 -10 -9 -1 -45 -6 -81
-10 -36 -4 -74 -9 -85 -11 -11 -2 -47 -7 -80 -10 -33 -3 -73 -7 -90 -9 -63 -7
-245 -22 -385 -30 -217 -14 -649 -3 -830 21 -19 3 -48 7 -65 9 -68 8 -113 15
-165 25 -30 6 -68 13 -85 15 -16 3 -93 20 -170 40 -77 19 -151 38 -165 41 -13
3 -30 10 -37 16 -7 6 -13 8 -13 4 0 -4 -100 27 -160 51 -8 4 -18 7 -22 8 -5 2
-10 4 -13 5 -3 1 -8 3 -12 5 -5 1 -19 6 -33 12 -14 6 -50 21 -80 33 -57 22
-361 170 -370 180 -3 3 -16 11 -30 18 -14 7 -41 22 -60 34 -19 11 -44 26 -55
32 -25 14 -59 36 -165 105 -47 31 -89 58 -95 60 -17 7 -150 105 -153 113 -2 5
-8 8 -13 8 -13 0 -358 261 -415 315 -6 5 -25 21 -43 35 -18 13 -43 33 -55 45
-13 11 -43 36 -67 57 -24 20 -53 44 -65 55 -113 99 -162 143 -190 168 -17 17
-69 64 -115 105 -110 100 -500 477 -824 798 -46 45 -86 82 -89 82 -3 0 -6
-1006 -6 -2235 l0 -2235 14400 0 14400 0 0 2240 0 2240 -27 6 c-16 3 -41 10
-58 15 -16 4 -41 10 -55 13 -49 10 -70 15 -78 20 -4 2 -27 7 -52 11 -24 4 -51
10 -60 15 -8 4 -31 10 -50 13 -19 3 -50 10 -67 16 -18 5 -33 8 -33 5 0 -3 -8
0 -19 5 -10 6 -31 13 -47 16 -16 2 -40 8 -54 11 -14 3 -36 8 -50 10 -14 2 -43
8 -65 13 -55 14 -241 45 -340 56 -16 2 -81 6 -144 10 -63 3 -118 8 -123 11 -4
3 -8 2 -8 -3z"/>
</g>
</svg>
